HIERARCHY
ROOT Hips
{
	OFFSET 0.00000 0.00000 0.00000
	CHANNELS 6 Xposition Yposition Zposition Zrotation Yrotation Xrotation 
	JOINT LHipJoint
	{
		OFFSET 0 0 0
		CHANNELS 3 Zrotation Yrotation Xrotation
		JOINT LeftUpLeg
		{
			OFFSET 1.62964 -1.40469 0.78906
			CHANNELS 3 Zrotation Yrotation Xrotation
			JOINT LeftLeg
			{
				OFFSET 2.29640 -6.30932 0.00000
				CHANNELS 3 Zrotation Yrotation Xrotation
				JOINT LeftFoot
				{
					OFFSET 2.29451 -6.30412 0.00000
					CHANNELS 3 Zrotation Yrotation Xrotation
					JOINT LeftToeBase
					{
						OFFSET 0.03611 -0.09921 1.56387
						CHANNELS 3 Zrotation Yrotation Xrotation
						End Site
						{
							OFFSET 0.00000 -0.00000 0.80291
						}
					}
				}
			}
		}
	}
	JOINT RHipJoint
	{
		OFFSET 0 0 0
		CHANNELS 3 Zrotation Yrotation Xrotation
		JOINT RightUpLeg
		{
			OFFSET -1.73712 -1.40469 0.78906
			CHANNELS 3 Zrotation Yrotation Xrotation
			JOINT RightLeg
			{
				OFFSET -2.28137 -6.26801 0.00000
				CHANNELS 3 Zrotation Yrotation Xrotation
				JOINT RightFoot
				{
					OFFSET -2.28681 -6.28298 0.00000
					CHANNELS 3 Zrotation Yrotation Xrotation
					JOINT RightToeBase
					{
						OFFSET -0.15927 -0.43759 1.61103
						CHANNELS 3 Zrotation Yrotation Xrotation
						End Site
						{
							OFFSET -0.00000 -0.00000 0.84630
						}
					}
				}
			}
		}
	}
	JOINT LowerBack
	{
		OFFSET 0 0 0
		CHANNELS 3 Zrotation Yrotation Xrotation
		JOINT Spine
		{
			OFFSET -0.04227 2.04338 -0.00225
			CHANNELS 3 Zrotation Yrotation Xrotation
			JOINT Spine1
			{
				OFFSET -0.02148 2.04482 -0.04273
				CHANNELS 3 Zrotation Yrotation Xrotation
				JOINT Neck
				{
					OFFSET 0 0 0
					CHANNELS 3 Zrotation Yrotation Xrotation
					JOINT Neck1
					{
						OFFSET 0.09180 1.44629 0.19359
						CHANNELS 3 Zrotation Yrotation Xrotation
						JOINT Head
						{
							OFFSET 0.00887 1.40645 0.14750
							CHANNELS 3 Zrotation Yrotation Xrotation
							End Site
							{
								OFFSET -0.00669 1.50671 0.03707
							}
						}
					}
				}
				JOINT LeftShoulder
				{
					OFFSET 0 0 0
					CHANNELS 3 Zrotation Yrotation Xrotation
					JOINT LeftArm
					{
						OFFSET 2.17674 1.86763 -0.06520
						CHANNELS 3 Zrotation Yrotation Xrotation
						JOINT LeftForeArm
						{
							OFFSET 4.65776 -0.00000 0.00000
							CHANNELS 3 Zrotation Yrotation Xrotation
							JOINT LeftHand
							{
								OFFSET 3.55539 -0.00000 0.00000
								CHANNELS 3 Zrotation Yrotation Xrotation
								JOINT LeftFingerBase
								{
									OFFSET 0 0 0
									CHANNELS 3 Zrotation Yrotation Xrotation
									JOINT LeftHandIndex1
									{
										OFFSET 0.70726 -0.00000 0.00000
										CHANNELS 3 Zrotation Yrotation Xrotation
										End Site
										{
											OFFSET 0.57022 -0.00000 0.00000
										}
									}
								}
								JOINT LThumb
								{
									OFFSET 0 0 0
									CHANNELS 3 Zrotation Yrotation Xrotation
									End Site
									{
										OFFSET 0.57892 -0.00000 0.57892
									}
								}
							}
						}
					}
				}
				JOINT RightShoulder
				{
					OFFSET 0 0 0
					CHANNELS 3 Zrotation Yrotation Xrotation
					JOINT RightArm
					{
						OFFSET -2.80694 1.55459 -0.32496
						CHANNELS 3 Zrotation Yrotation Xrotation
						JOINT RightForeArm
						{
							OFFSET -4.71925 -0.00000 -0.00000
							CHANNELS 3 Zrotation Yrotation Xrotation
							JOINT RightHand
							{
								OFFSET -3.56990 -0.00000 0.00000
								CHANNELS 3 Zrotation Yrotation Xrotation
								JOINT RightFingerBase
								{
									OFFSET 0 0 0
									CHANNELS 3 Zrotation Yrotation Xrotation
									JOINT RightHandIndex1
									{
										OFFSET -0.50776 -0.00000 0.00000
										CHANNELS 3 Zrotation Yrotation Xrotation
										End Site
										{
											OFFSET -0.40937 -0.00000 0.00000
										}
									}
								}
								JOINT RThumb
								{
									OFFSET 0 0 0
									CHANNELS 3 Zrotation Yrotation Xrotation
									End Site
									{
										OFFSET -0.41562 -0.00000 0.41562
									}
								}
							}
						}
					}
				}
			}
		}
	}
}
MOTION
Frames: 16
Frame Time: .0083333
-1.176 17.9952 21.0325 0 0 0 0 0 0 -21 0 0 0 0 0 0 0 0 0 0 0 0 0 0 21 0 0 0 0 0 0 0 0 0 0 0 0 0 0 0 0 0 0 0 0 0 0 -16 0 0 21 0 0 11 0 0 0 -8 0 0 0 0 0 0 0 0 0 0 0 0 0 0 0 0 0 0 0 0 8 0 0 0 0 0 0 0 0 0 0 0 0 0 0 0 0 0
-1.1760 17.9952 21.0325 175.4130 -0.9423 -155.3350 0.0000 0.0000 0.0000 -26.0478 -14.6425 -18.2046 0.1462 2.4645 6.7912 0.1444 -2.6162 -6.7496 1.8565 -8.5606 -24.4303 0.0000 0.0000 0.0000 14.9588 11.6394 -19.6470 -0.1072 -2.1115 5.8139 -1.0011 1.2273 -18.5399 -1.6182 8.0209 -22.7774 -10.6047 -3.9958 -22.2716 -0.7314 -2.5982 1.1206 4.2900 -2.0418 14.3542 -3.1458 -7.7433 -0.8858 3.1989 -9.9632 16.7643 1.0213 -4.5280 5.5267 0.0000 0.0000 0.0000 -83.8316 -5.1790 20.6224 15.1190 -24.3116 -3.2748 -0.0000 0.0000 -13.8457 22.9259 -12.2278 -5.1189 -7.1250 0.0000 -0.0000 -2.9855 16.7503 2.0011 0.0000 0.0000 0.0000 89.8376 -3.8412 12.8512 -22.9734 34.0597 -7.1234 0.0000 0.0000 12.9330 -12.7954 -57.0518 10.7902 7.1250 -0.0000 -0.0000 83.2433 -76.6307 -69.4107
-1.1809 17.9918 21.0367 175.8950 -1.1965 -154.7730 0.0000 0.0000 0.0000 -25.2957 -14.9334 -18.8714 0.1493 2.4901 6.8621 0.1430 -2.5753 -6.7169 1.5531 -7.8655 -22.3062 0.0000 0.0000 0.0000 15.5163 11.4965 -20.4861 -0.1151 -2.1877 6.0246 -0.9857 1.4899 -18.3238 -1.6183 8.0210 -22.7780 -9.9265 -3.8929 -22.8629 -0.6854 -2.6022 0.9142 3.9441 -1.9940 14.4098 -2.9033 -7.7925 -0.7260 3.1045 -10.0167 16.8215 0.9578 -4.5390 5.5019 0.0000 0.0000 0.0000 -83.8954 -4.7864 21.7628 14.8002 -23.8671 -3.1447 -0.0000 0.0000 -9.8742 29.0594 -11.5564 -6.3519 -7.1250 0.0000 -0.0000 1.3205 16.8158 -0.8822 0.0000 0.0000 0.0000 89.9911 -4.1967 12.3391 -23.3837 34.5057 -7.3545 0.0000 0.0000 14.8904 -2.7098 -55.9399 2.2454 7.1250 -0.0000 -0.0000 80.4538 -72.9502 -62.4432
-1.1862 17.9881 21.0401 176.3660 -1.4382 -154.2000 0.0000 0.0000 0.0000 -24.5372 -15.2926 -19.5717 0.1545 2.5326 6.9801 0.1465 -2.4088 -6.7964 1.5809 -7.9322 -22.5085 0.0000 0.0000 0.0000 16.0086 11.6021 -21.2369 -0.1218 -2.2502 6.1977 -0.9822 1.6144 -18.2584 -1.6044 7.9882 -22.6784 -9.2611 -3.7764 -23.4705 -0.6414 -2.5945 0.7040 3.6058 -1.9438 14.4684 -2.7805 -7.8305 -0.6242 3.1322 -10.0637 16.9403 0.9475 -4.5433 5.5184 -0.0000 -0.0000 0.0000 -83.9841 -4.3417 23.0066 14.5523 -23.5188 -3.0450 -0.0000 0.0000 -6.2348 34.6867 -9.7269 -6.6693 -7.1250 0.0000 -0.0000 5.4238 18.2349 -3.4699 -0.0000 -0.0000 0.0000 90.1881 -4.4861 11.7921 -23.7688 34.9189 -7.5738 0.0000 0.0000 16.9571 7.2023 -54.5405 -5.8769 7.1250 -0.0000 -0.0000 80.4433 -69.2706 -57.9273
-1.1929 17.9843 21.0532 176.8150 -1.5341 -153.5220 0.0000 0.0000 0.0000 -23.7565 -15.6801 -20.4895 0.1626 2.5979 7.1612 0.1482 -2.1534 -6.8429 1.8062 -8.4501 -24.0897 0.0000 0.0000 0.0000 16.3406 12.0225 -22.2015 -0.1360 -2.3772 6.5494 -0.9943 1.5812 -18.3817 -1.6699 8.1417 -23.1452 -8.6278 -3.6075 -24.0798 -0.6069 -2.5263 0.4405 3.2975 -1.8689 14.4560 -2.7121 -7.8729 -0.4556 3.2010 -10.1214 16.9738 0.9616 -4.5575 5.5023 -0.0000 -0.0000 0.0000 -84.0726 -3.4963 26.1247 14.1838 -22.9968 -2.8995 -0.0000 -0.0000 0.5305 43.9682 -4.1705 -4.0128 -7.1250 0.0000 -0.0000 12.8337 24.2008 -6.6049 -0.0000 -0.0000 0.0000 90.3676 -4.7634 11.3639 -24.1433 35.3154 -7.7892 0.0000 0.0000 18.4562 16.6699 -52.3998 -13.3463 7.1250 -0.0000 -0.0000 80.7649 -65.6081 -53.3653
-1.1993 17.9844 21.0665 177.4930 -1.7152 -152.8070 0.0000 0.0000 0.0000 -22.6262 -16.0672 -21.5140 0.1735 2.6833 7.3984 0.1501 -2.0128 -6.8947 1.8511 -8.5487 -24.3936 0.0000 0.0000 0.0000 16.9676 12.4285 -23.2365 -0.1507 -2.5016 6.8940 -1.0005 1.5480 -18.4491 -1.8221 8.4853 -24.1981 -7.7255 -3.3588 -24.7120 -0.5502 -2.4486 0.1146 2.8659 -1.7719 14.3689 -2.5099 -7.9307 -0.0597 3.2313 -10.1939 16.8949 0.9539 -4.5757 5.4043 -0.0000 -0.0000 0.0000 -84.1634 -3.4061 24.8437 14.2643 -23.1114 -2.9311 -0.0000 -0.0000 1.7763 43.8639 -3.5622 -3.4174 -7.1250 0.0000 -0.0000 12.8731 25.0299 -6.3718 -0.0000 -0.0000 0.0000 90.6065 -5.2537 11.3293 -24.6378 35.8315 -8.0769 0.0000 0.0000 18.6170 26.2122 -49.4577 -20.5124 7.1250 -0.0000 -0.0000 81.4146 -61.7548 -48.3039
-1.2025 17.9957 21.0698 178.2540 -1.9470 -152.5990 0.0000 0.0000 0.0000 -21.5107 -16.2089 -21.8732 0.1781 2.7184 7.4957 0.1505 -2.0382 -6.9041 1.6943 -8.1979 -23.3168 0.0000 0.0000 0.0000 17.8266 12.7282 -23.4707 -0.1541 -2.5294 6.9712 -0.9878 1.5241 -18.3352 -1.7850 8.4031 -23.9454 -7.0676 -3.0176 -24.9601 -0.4023 -2.2003 -0.0427 2.7522 -1.6164 14.2683 -2.1459 -8.0872 0.3986 3.1716 -10.3895 16.7409 0.8914 -4.6522 5.2632 0.0000 -0.0000 0.0000 -85.0935 -4.3947 20.8522 13.3904 -21.8566 -2.5968 -0.0000 -0.0000 5.8765 24.1486 -10.4488 -4.6485 -7.1250 0.0000 -0.0000 -2.0468 18.5582 1.2897 0.0000 -0.0000 0.0000 90.8075 -5.7893 10.8640 -25.4376 36.6479 -8.5498 0.0000 0.0000 19.0397 38.3534 -45.4205 -29.4056 7.1250 -0.0000 -0.0000 83.4935 -57.0105 -42.2238
-1.2052 17.9936 21.0678 178.2610 -1.9989 -152.6410 0.0000 0.0000 0.0000 -21.5290 -16.2011 -21.8039 0.1767 2.7078 7.4663 0.1500 -1.8282 -6.9065 1.8535 -8.5541 -24.4102 0.0000 0.0000 0.0000 17.8256 12.7101 -23.3885 -0.1532 -2.5224 6.9517 -0.9776 1.6068 -18.2166 -1.5469 7.8506 -22.2613 -7.0663 -2.9932 -24.6681 -0.3798 -2.2137 -0.2011 2.7847 -1.6161 13.9174 -2.3199 -8.0095 0.3613 3.2067 -10.2627 17.0011 0.9308 -4.5824 5.3578 0.0000 0.0000 0.0000 -85.1789 -4.0303 21.7414 13.3145 -21.7463 -2.5686 -0.0000 -0.0000 3.0520 25.1893 -11.1076 -5.1775 -7.1250 0.0000 -0.0000 -1.3476 17.7406 0.8732 0.0000 0.0000 0.0000 90.7095 -6.2777 10.6883 -26.1481 37.3545 -8.9773 0.0000 0.0000 20.5716 42.9049 -42.1996 -31.9766 7.1250 -0.0000 -0.0000 82.1169 -54.7419 -36.1899
-1.2067 17.9931 21.0696 178.2910 -2.0366 -152.6740 0.0000 0.0000 0.0000 -21.5049 -16.1733 -21.7854 0.1768 2.7088 7.4690 0.1530 -1.8043 -6.9792 1.9430 -8.7464 -25.0052 0.0000 0.0000 0.0000 17.8528 12.7170 -23.3894 -0.1565 -2.5490 7.0254 -0.9775 1.6294 -18.2099 -1.4747 7.6735 -21.7267 -7.0884 -2.9989 -24.8157 -0.3294 -2.1895 -0.0692 2.8578 -1.6121 14.1586 -2.4854 -7.9499 0.2077 3.3237 -10.2044 16.9399 0.9894 -4.5625 5.3773 -0.0000 -0.0000 0.0000 -85.2856 -4.2328 21.5397 13.3472 -21.7938 -2.5808 -0.0000 -0.0000 3.3203 24.4165 -9.5501 -4.3073 -7.1250 0.0000 -0.0000 -1.8174 19.5142 1.1065 -0.0000 -0.0000 0.0000 90.5821 -6.3284 10.9815 -26.8102 37.9976 -9.3820 0.0000 0.0000 20.5785 42.9896 -40.5964 -31.2407 7.1250 -0.0000 -0.0000 80.0131 -54.0944 -32.7026
-1.1999 17.9948 21.0679 178.3330 -2.1147 -152.8030 0.0000 0.0000 0.0000 -21.4368 -16.0673 -21.6408 0.1766 2.7069 7.4638 0.1567 -2.0130 -7.0486 1.9499 -8.7609 -25.0502 0.0000 0.0000 0.0000 17.9457 12.8418 -23.1125 -0.1526 -2.5171 6.9370 -0.9802 1.3902 -18.2974 -1.5246 7.7963 -22.0971 -7.2158 -3.0469 -24.8332 -0.2451 -2.2083 0.0330 3.0190 -1.6342 14.3027 -2.5397 -7.9233 0.1582 3.3353 -10.1750 16.8674 1.0016 -4.5557 5.3655 -0.0000 -0.0000 0.0000 -85.3749 -4.1887 21.6109 13.4797 -21.9860 -2.6302 -0.0000 -0.0000 2.9152 24.4777 -10.0870 -4.5588 -7.1250 0.0000 -0.0000 -1.7973 18.9232 1.1179 -0.0000 -0.0000 0.0000 90.4396 -6.4911 11.2051 -27.7218 38.8589 -9.9487 0.0000 0.0000 21.5392 46.6856 -38.0851 -33.1942 7.1250 -0.0000 -0.0000 78.9637 -52.3010 -27.5278
-1.1855 17.9972 21.0584 178.3650 -2.2696 -153.0910 0.0000 0.0000 0.0000 -21.3946 -15.7845 -21.2673 0.1703 2.6586 7.3297 0.1490 -2.5190 -6.8541 1.6606 -8.1202 -23.0798 0.0000 0.0000 0.0000 18.0670 13.1815 -22.3404 -0.1371 -2.3866 6.5754 -0.9870 0.7788 -18.5350 -1.5041 7.7462 -21.9460 -7.3363 -3.1091 -24.7243 -0.2230 -2.2449 0.1744 3.1006 -1.6599 14.4222 -2.5541 -7.8725 0.1038 3.4552 -10.1288 16.8025 1.0416 -4.5301 5.3596 0.0000 0.0000 0.0000 -85.2703 -4.0727 21.9112 13.6429 -22.2219 -2.6916 -0.0000 -0.0000 2.0536 24.4289 -9.5282 -4.3000 -7.1250 0.0000 -0.0000 -1.8075 19.5371 1.0995 0.0000 0.0000 0.0000 90.5113 -6.8585 13.3976 -28.6824 39.7369 -10.5571 0.0000 0.0000 16.6179 36.4104 -46.3231 -28.0765 7.1250 -0.0000 -0.0000 83.4618 -57.8295 -43.7297
-1.1785 17.9975 21.0494 178.3690 -2.4143 -153.3170 0.0000 0.0000 0.0000 -21.4345 -15.4771 -20.9865 0.1644 2.6124 7.2013 0.1463 -2.6189 -6.7941 1.6620 -8.1234 -23.0894 0.0000 0.0000 0.0000 18.1507 13.3347 -21.7809 -0.1273 -2.3001 6.3357 -0.9967 0.3793 -18.7511 -1.4824 7.6927 -21.7844 -7.4792 -3.1819 -24.6977 -0.1456 -2.2895 0.3162 3.2537 -1.6954 14.5939 -2.7151 -7.7959 0.0357 3.5932 -10.0446 16.7257 1.1115 -4.4950 5.3596 0.0000 0.0000 0.0000 -85.3420 -4.1448 21.9751 13.6699 -22.2608 -2.7018 -0.0000 -0.0000 1.4086 24.4435 -10.6728 -4.8118 -7.1250 0.0000 -0.0000 -1.8491 18.2874 1.1761 0.0000 0.0000 0.0000 90.5222 -7.6995 19.5147 -29.9898 40.8846 -11.4029 0.0000 -0.0000 -1.9637 -22.1591 -55.9070 18.6374 7.1250 -0.0000 -0.0000 80.1025 -80.1000 -70.0603
-1.1809 17.9945 21.0511 178.4030 -2.3769 -153.2230 0.0000 0.0000 0.0000 -21.4159 -15.4068 -21.1361 0.1654 2.6201 7.2227 0.1466 -2.6266 -6.8014 1.7780 -8.3874 -23.8972 0.0000 0.0000 0.0000 18.1726 13.2750 -21.9845 -0.1312 -2.3344 6.4308 -1.0049 0.5313 -18.7807 -1.5596 7.8813 -22.3541 -7.4829 -3.1688 -24.8873 -0.1076 -2.2622 0.3099 3.3050 -1.6887 14.6921 -2.8010 -7.7407 0.1462 3.6316 -9.9744 16.5657 1.1472 -4.4711 5.2951 -0.0000 -0.0000 0.0000 -85.4285 -4.1259 21.9403 13.6841 -22.2813 -2.7072 -0.0000 -0.0000 1.1459 24.3783 -11.2557 -5.0548 -7.1250 0.0000 -0.0000 -1.9241 17.6588 1.2505 -0.0000 -0.0000 0.0000 90.4068 -8.0463 20.0711 -31.1318 41.8439 -12.1576 0.0000 -0.0000 -2.4593 -22.1618 -55.1626 18.4855 7.1250 -0.0000 -0.0000 75.7891 -80.1030 -65.8548
-1.1909 17.9903 21.0655 178.5460 -2.1444 -152.8470 0.0000 0.0000 0.0000 -21.2033 -15.6300 -21.6601 0.1721 2.6726 7.3684 0.1531 -2.3249 -6.9517 1.9187 -8.6946 -24.8445 0.0000 0.0000 0.0000 18.1838 13.2235 -22.8520 -0.1495 -2.4917 6.8667 -1.0086 1.0610 -18.6574 -1.6050 7.9897 -22.6828 -7.2134 -3.0169 -25.1843 -0.1457 -2.1384 0.1451 3.1479 -1.6144 14.6317 -2.8008 -7.7254 0.3499 3.6404 -9.9492 16.4648 1.1610 -4.4611 5.2291 -0.0000 0.0000 0.0000 -85.3636 -3.8921 22.1811 13.8031 -22.4526 -2.7525 -0.0000 -0.0000 0.7794 24.4880 -11.2344 -5.0709 -7.1250 0.0000 -0.0000 -1.8462 17.6713 1.1993 -0.0000 0.0000 0.0000 90.3932 -8.5153 20.6753 -32.4410 42.8960 -13.0400 0.0000 -0.0000 -3.0572 -21.5900 -54.8957 17.9392 7.1250 -0.0000 -0.0000 74.0939 -79.8638 -63.9664
-1.1986 17.9890 21.0779 178.6960 -2.0458 -152.5950 0.0000 0.0000 0.0000 -20.9751 -15.7996 -22.0139 0.1755 2.6983 7.4399 0.1553 -2.0978 -7.0105 1.9143 -8.6851 -24.8153 0.0000 0.0000 0.0000 18.2424 13.2258 -23.4432 -0.1632 -2.6025 7.1739 -1.0039 1.4134 -18.5167 -1.4834 7.6950 -21.7916 -6.9152 -2.8886 -25.3180 -0.1859 -2.0610 0.0185 2.9582 -1.5564 14.5309 -2.7242 -7.7110 0.2947 3.5484 -9.9095 16.6491 1.1187 -4.4321 5.2857 0.0000 0.0000 0.0000 -85.2500 -3.6941 22.4799 13.9052 -22.5990 -2.7916 -0.0000 -0.0000 0.3803 24.5603 -11.0410 -5.0018 -7.1250 0.0000 -0.0000 -1.7854 17.8750 1.1518 0.0000 0.0000 0.0000 90.4425 -8.9422 21.1458 -33.7920 43.9300 -13.9686 0.0000 -0.0000 -3.6548 -21.1111 -54.7008 17.4899 7.1250 -0.0000 -0.0000 72.9097 -79.6577 -62.6131
-1.1957 17.9884 21.0794 178.7350 -2.1069 -152.5540 0.0000 0.0000 0.0000 -20.9239 -15.6743 -22.0620 0.1710 2.6639 7.3443 0.1485 -2.2055 -6.8481 1.8786 -8.6084 -24.5780 0.0000 0.0000 0.0000 18.2799 13.3491 -23.4251 -0.1618 -2.5918 7.1442 -1.0008 1.3124 -18.5140 -1.4349 7.5738 -21.4269 -6.8849 -2.8841 -25.3349 -0.1895 -2.0667 -0.0109 2.9345 -1.5566 14.5041 -2.5768 -7.7282 0.1838 3.3845 -9.9109 16.8167 1.0389 -4.4254 5.3408 -0.0000 0.0000 0.0000 -85.1753 -3.5106 22.6800 13.9932 -22.7250 -2.8255 -0.0000 -0.0000 0.1654 24.7404 -11.1495 -5.0919 -7.1250 0.0000 -0.0000 -1.6647 17.7391 1.0788 -0.0000 0.0000 0.0000 90.4527 -9.2767 21.5849 -35.1026 44.8853 -14.8857 0.0000 -0.0000 -4.1896 -20.9688 -54.3678 17.3011 7.1250 -0.0000 -0.0000 71.0628 -79.5622 -60.7508
